<svg xmlns="http://www.w3.org/2000/svg" viewBox="0 0 400 300" role="img">
  <defs>
    <pattern id="g" width="20" height="20" patternUnits="userSpaceOnUse">
      <path d="M20 0H0v20" fill="none" stroke="#A8431A" stroke-width=".5" opacity=".07"/>
    </pattern>
    <radialGradient id="glow" cx="78%" cy="18%" r="70%">
      <stop offset="0" stop-color="#C0763C" stop-opacity=".16"/>
      <stop offset="1" stop-color="#C0763C" stop-opacity="0"/>
    </radialGradient>
  </defs>
  <rect width="400" height="300" fill="#FBF7F3"/>
  <rect width="400" height="300" fill="url(#g)"/>
  <rect width="400" height="300" fill="url(#glow)"/>
  <g fill="none" stroke="#A8431A" stroke-width="2.6" stroke-linecap="round" stroke-linejoin="round">
    <!-- آچار -->
    <path d="M96 214 L168 142"/>
    <path d="M168 142 a26 26 0 1 0 34 -34 l-18 18 l-16 -16 l18 -18 a26 26 0 0 0 -34 34 z"/>
    <path d="M92 210 l-14 14 a10 10 0 0 0 14 14 l14 -14" stroke="#C0763C" stroke-width="2.2"/>
    <!-- صفحه برش -->
    <ellipse cx="272" cy="128" rx="20" ry="54"/>
    <ellipse cx="282" cy="128" rx="20" ry="54"/>
    <path d="M272 74 h10 M272 182 h10"/>
    <ellipse cx="272" cy="128" rx="6" ry="16" stroke="#C0763C" stroke-width="2"/>
    <!-- متر -->
    <rect x="222" y="196" width="62" height="52" rx="10" stroke="#C0763C" stroke-width="2.2"/>
    <circle cx="253" cy="222" r="15" stroke="#C0763C" stroke-width="2"/>
    <circle cx="253" cy="222" r="5"/>
    <path d="M284 210 h38 v18 h-38" stroke="#C0763C" stroke-width="2.2"/>
    <path d="M294 210 v18 M304 210 v12 M314 210 v18" stroke="#C0763C" stroke-width="1.6"/>
  </g>
</svg>
