<svg xmlns="http://www.w3.org/2000/svg" viewBox="0 0 400 300" role="img">
  <defs>
    <pattern id="g" width="20" height="20" patternUnits="userSpaceOnUse">
      <path d="M20 0H0v20" fill="none" stroke="#A8431A" stroke-width=".5" opacity=".07"/>
    </pattern>
    <radialGradient id="glow" cx="78%" cy="18%" r="70%">
      <stop offset="0" stop-color="#C0763C" stop-opacity=".16"/>
      <stop offset="1" stop-color="#C0763C" stop-opacity="0"/>
    </radialGradient>
  </defs>
  <rect width="400" height="300" fill="#FBF7F3"/>
  <rect width="400" height="300" fill="url(#g)"/>
  <rect width="400" height="300" fill="url(#glow)"/>
  <g fill="none" stroke="#A8431A" stroke-width="2.6" stroke-linecap="round" stroke-linejoin="round">

    <path d="M74 200 h252 v58 H74 Z"/>
    <path d="M74 229 h252" stroke-width="1.8" opacity=".8"/>
    <path d="M126 200v29M200 200v29M274 200v29M100 229v29M164 229v29M236 229v29M300 229v29"
          stroke-width="1.6" opacity=".55"/>
    <path d="M126 200 V144" stroke-width="4"/>
    <path d="M99 124 L130 157 L122 163 Z" fill="#A8431A" stroke="none"/>
    <path d="M153 124 L130 163 L122 157 Z" fill="#A8431A" stroke="none"/>
    <path d="M200 200 V132" stroke-width="4"/>
    <path d="M173 112 L204 145 L196 151 Z" fill="#A8431A" stroke="none"/>
    <path d="M227 112 L204 151 L196 145 Z" fill="#A8431A" stroke="none"/>
    <path d="M274 200 V144" stroke-width="4"/>
    <path d="M247 124 L278 157 L270 163 Z" fill="#A8431A" stroke="none"/>
    <path d="M301 124 L278 163 L270 157 Z" fill="#A8431A" stroke="none"/>

  </g>
</svg>
