<svg xmlns="http://www.w3.org/2000/svg" viewBox="0 0 400 300" role="img">
  <defs>
    <pattern id="g" width="20" height="20" patternUnits="userSpaceOnUse">
      <path d="M20 0H0v20" fill="none" stroke="#A8431A" stroke-width=".5" opacity=".07"/>
    </pattern>
    <radialGradient id="glow" cx="78%" cy="18%" r="70%">
      <stop offset="0" stop-color="#C0763C" stop-opacity=".16"/>
      <stop offset="1" stop-color="#C0763C" stop-opacity="0"/>
    </radialGradient>
  </defs>
  <rect width="400" height="300" fill="#FBF7F3"/>
  <rect width="400" height="300" fill="url(#g)"/>
  <rect width="400" height="300" fill="url(#glow)"/>
  <g fill="none" stroke="#A8431A" stroke-width="2.6" stroke-linecap="round" stroke-linejoin="round">

    
    <path d="M70 54 H330" stroke="#C0763C" stroke-width="3" opacity=".5"/>
    <path d="M70 246 H330" stroke="#C0763C" stroke-width="3" opacity=".5"/>
    <path d="M200 54 V84"/>
    <path d="M200 246 V216"/>
    <path d="M200.0 150.0 Q227.7 117.0 200.0 84.0 Q172.3 117.0 200.0 150.0 Z" stroke="#C0763C" stroke-width="2"/>
    <path d="M200.0 150.0 Q242.9 146.3 246.7 103.3 Q203.7 107.1 200.0 150.0 Z" stroke="#C0763C" stroke-width="2"/>
    <path d="M200.0 150.0 Q233.0 177.7 266.0 150.0 Q233.0 122.3 200.0 150.0 Z" stroke="#C0763C" stroke-width="2"/>
    <path d="M200.0 150.0 Q203.7 192.9 246.7 196.7 Q242.9 153.7 200.0 150.0 Z" stroke="#C0763C" stroke-width="2"/>
    <path d="M200.0 150.0 Q172.3 183.0 200.0 216.0 Q227.7 183.0 200.0 150.0 Z" stroke="#C0763C" stroke-width="2"/>
    <path d="M200.0 150.0 Q157.1 153.7 153.3 196.7 Q196.3 192.9 200.0 150.0 Z" stroke="#C0763C" stroke-width="2"/>
    <path d="M200.0 150.0 Q167.0 122.3 134.0 150.0 Q167.0 177.7 200.0 150.0 Z" stroke="#C0763C" stroke-width="2"/>
    <path d="M200.0 150.0 Q196.3 107.1 153.3 103.3 Q157.1 146.3 200.0 150.0 Z" stroke="#C0763C" stroke-width="2"/>
    <circle cx="200" cy="150" r="18" fill="none"/>
    <circle cx="200" cy="150" r="7" fill="none" stroke="#C0763C" stroke-width="2"/>
  </g>
</svg>
